<svg width="85" height="88" viewBox="0 0 85 88" fill="none" xmlns="http://www.w3.org/2000/svg">
<g clip-path="url(#clip0_2136_1705)">
<path d="M7.38745 22.6469C7.90336 22.6551 8.41574 22.5606 8.89476 22.3688C9.37378 22.1771 9.80986 21.8919 10.1776 21.53C10.5453 21.1681 10.8374 20.7366 11.0367 20.2607C11.2361 19.7848 11.3387 19.274 11.3387 18.758C11.3387 18.242 11.2361 17.7312 11.0367 17.2553C10.8374 16.7794 10.5453 16.3479 10.1776 15.986C9.80986 15.624 9.37378 15.3389 8.89476 15.1471C8.41574 14.9554 7.90336 14.8609 7.38745 14.8691C5.26264 14.9013 3.55682 16.633 3.55682 18.7581C3.55682 20.8833 5.26264 22.6147 7.38745 22.6469ZM66.9493 19.3505C67.4643 19.3571 67.9755 19.2614 68.4531 19.0689C68.9308 18.8764 69.3655 18.591 69.732 18.2291C70.0985 17.8673 70.3895 17.4362 70.588 16.961C70.7866 16.4858 70.8888 15.9759 70.8888 15.4609C70.8887 14.9459 70.7864 14.436 70.5877 13.9609C70.389 13.4857 70.0979 13.0548 69.7313 12.693C69.3647 12.3313 68.93 12.0459 68.4522 11.8536C67.9745 11.6612 67.4633 11.5656 66.9483 11.5724C64.8235 11.6045 63.118 13.3366 63.118 15.4618C63.1184 17.5869 64.8245 19.3187 66.9493 19.3505Z" fill="#FF598B"/>
<path d="M70.1054 69.3154C70.6213 69.3236 71.1337 69.229 71.6127 69.0372C72.0917 68.8454 72.5277 68.5602 72.8954 68.1982C73.2631 67.8362 73.5551 67.4047 73.7544 66.9288C73.9537 66.4528 74.0563 65.942 74.0562 65.426C74.0562 64.91 73.9534 64.3993 73.754 63.9234C73.5546 63.4475 73.2625 63.016 72.8947 62.6542C72.5269 62.2923 72.0908 62.0072 71.6118 61.8155C71.1327 61.6238 70.6203 61.5293 70.1044 61.5376C67.9796 61.5698 66.2741 63.3019 66.2745 65.427C66.2748 67.5522 67.9806 69.2836 70.1054 69.3154ZM23.2714 7.77848C23.7863 7.78517 24.2975 7.68952 24.7752 7.49708C25.2529 7.30464 25.6877 7.01923 26.0542 6.65744C26.4207 6.29564 26.7118 5.86465 26.9104 5.38948C27.109 4.91431 27.2113 4.40442 27.2113 3.8894C27.2113 3.37439 27.109 2.8645 26.9104 2.38933C26.7118 1.91416 26.4207 1.48317 26.0542 1.12137C25.6877 0.759572 25.2529 0.47417 24.7752 0.281729C24.2975 0.0892866 23.7863 -0.00636367 23.2714 0.000328384C21.1462 0.0328358 19.4407 1.76427 19.4407 3.8894C19.4407 6.01454 21.1462 7.7463 23.2714 7.77848Z" fill="#FFCD59"/>
<path d="M46.2806 34.7862C45.8193 34.7861 45.3642 34.6809 44.9496 34.4787C44.5351 34.2765 44.172 33.9825 43.888 33.619C43.604 33.2556 43.4065 32.8323 43.3105 32.3811C43.2145 31.93 43.2225 31.4629 43.3339 31.0153C43.4554 30.5287 43.5545 30.0401 43.6291 29.5525C42.7178 29.9287 41.747 30.1404 40.7618 30.1777C38.9956 30.245 37.4142 29.9472 36.0663 29.2944C34.7454 28.6615 33.6455 27.6459 32.9095 26.3795C31.4598 23.8669 31.5849 20.5617 33.226 17.9588C34.7906 15.4738 37.4408 14.1288 40.314 14.3485C42.5271 14.5215 44.4667 15.3503 46.0202 16.7724C46.3032 15.9741 46.5739 15.12 46.8322 14.2103C48.4192 8.60912 48.9432 2.98468 48.9475 2.92787C48.9834 2.53087 49.0971 2.14483 49.2823 1.79182C49.4674 1.43881 49.7203 1.12574 50.0265 0.870501C50.3327 0.615267 50.6862 0.42287 51.0668 0.304307C51.4473 0.185743 51.8475 0.143337 52.2445 0.179511C53.0462 0.252826 53.7859 0.641363 54.3012 1.25976C54.8166 1.87816 55.0653 2.67583 54.9929 3.47754C54.9709 3.72939 54.4123 9.7262 52.672 15.8681C51.7934 18.9695 50.7551 21.5901 49.5789 23.6824C49.6656 24.1487 49.7347 24.6272 49.7861 25.118C50.0311 27.4858 49.836 30.0348 49.2233 32.488C49.0583 33.1438 48.6794 33.7259 48.1464 34.1421C47.6134 34.5582 46.9568 34.7851 46.2806 34.7862ZM39.673 20.3949C39.3591 20.3949 38.8061 20.4868 38.3609 21.1928C37.9347 21.8692 37.8513 22.7929 38.1678 23.3416C38.5888 24.0715 39.8273 24.1352 40.5287 24.1086C41.3246 24.0784 42.1403 23.5793 42.9382 22.6698C42.8053 22.3914 42.6482 22.1253 42.4686 21.8745C41.8096 20.9593 40.9756 20.4914 39.8424 20.4028C39.7997 20.4001 39.7423 20.3949 39.673 20.3949Z" fill="#59B2FF"/>
<path d="M37.5515 43.1035C24.9613 33.1793 11.8016 28.8794 8.15884 33.5004C7.81608 33.9399 7.56416 34.4432 7.41774 34.981C7.39542 35.0463 7.3783 35.1132 7.36651 35.1812V35.1891C7.3177 35.3964 7.28125 35.6063 7.25717 35.8186L0.12917 77.5523C-1.01253 84.2547 5.6226 89.6211 11.9392 87.1052L50.5939 71.7026C51.2756 71.4313 52.9531 70.395 53.4122 69.823C53.5339 69.704 53.6474 69.5778 53.7527 69.4444C57.3948 64.8228 50.1407 53.0305 37.5515 43.1026V43.1035Z" fill="#FFCD59"/>
<path d="M53.7484 69.4456C57.3932 64.8223 50.1417 53.0277 37.5515 43.1028C24.9613 33.1775 11.8 28.8796 8.15555 33.5029C4.5111 38.1262 11.7619 49.9208 24.3521 59.8457C36.9424 69.771 50.1036 74.0689 53.7484 69.4456Z" fill="#FFCD59"/>
<path d="M51.5504 66.7535C54.541 62.959 47.9529 52.7776 36.8343 44.0127C25.7158 35.2472 14.2771 31.2179 11.2868 35.0114C8.29541 38.8059 14.8836 48.9873 26.0021 57.7522C37.1203 66.5177 48.5593 70.548 51.5504 66.7535Z" fill="#FFCD59"/>
<path d="M38.9221 47.6291C39.437 47.6358 39.9482 47.5401 40.4259 47.3477C40.9036 47.1552 41.3384 46.8698 41.7049 46.508C42.0714 46.1462 42.3624 45.7152 42.5611 45.2401C42.7597 44.7649 42.862 44.255 42.862 43.74C42.862 43.225 42.7597 42.7151 42.5611 42.2399C42.3624 41.7647 42.0714 41.3338 41.7049 40.972C41.3384 40.6102 40.9036 40.3248 40.4259 40.1323C39.9482 39.9399 39.437 39.8442 38.9221 39.8509C36.7973 39.8831 35.0914 41.6149 35.0914 43.74C35.0914 45.8651 36.7973 47.5969 38.9221 47.6291Z" fill="#59B2FF"/>
<path d="M59.8965 40.0621L59.9251 40.0302C59.9605 39.9922 60.0262 39.9219 60.1208 39.8263C60.4153 39.5333 60.722 39.2529 61.0402 38.9857C62.2091 38.0072 63.4864 37.1666 64.8472 36.4804C68.1728 34.7975 73.1244 33.4243 79.6183 34.9216C81.5698 35.3715 83.516 34.1546 83.9661 32.2035C84.416 30.2524 83.1991 28.3059 81.248 27.856C72.8414 25.9177 66.1576 27.6899 61.5721 30.012C59.7102 30.9515 57.9631 32.1028 56.3653 33.4431C55.8859 33.846 55.4241 34.2695 54.9813 34.7125C54.8095 34.8851 54.642 35.0619 54.4789 35.2428L54.4395 35.2871L54.4257 35.3029L54.4192 35.3101L54.4169 35.3127C54.4159 35.3144 54.4139 35.316 57.1623 37.6802L54.4139 35.316C53.1409 36.8337 53.3211 39.0921 54.8188 40.3885C56.3164 41.6848 58.5772 41.5397 59.8965 40.0621ZM23.98 14.2009C23.7095 13.7715 23.357 13.3997 22.9426 13.1067C22.5282 12.8137 22.0601 12.6054 21.565 12.4936C21.07 12.3819 20.5577 12.3689 20.0577 12.4554C19.5576 12.5419 19.0795 12.7262 18.6508 12.9978C18.2218 13.2686 17.8503 13.6212 17.5577 14.0355C17.265 14.4499 17.0569 14.9178 16.9451 15.4126C16.8333 15.9074 16.8202 16.4194 16.9064 16.9193C16.9925 17.4192 17.1764 17.8973 17.4473 18.3261C17.5875 18.5504 20.461 23.2055 21.0514 29.5809C21.6523 36.0584 19.7491 42.0125 15.3862 47.3517C16.8553 49.2187 18.6232 51.1593 20.6426 53.1002C23.4369 49.8711 25.5394 46.4011 26.9208 42.7297C28.6201 38.2128 29.2213 33.4233 28.7087 28.496C27.8921 20.6568 24.4818 14.9972 23.98 14.2009Z" fill="#FF598B"/>
<path d="M72.3183 51.4136C74.2892 51.9236 75.682 52.4795 76.2839 52.7382C76.9874 53.1699 77.8098 53.3669 78.6326 53.3008C79.4553 53.2347 80.2357 52.9089 80.8612 52.3705C81.2756 52.0124 81.6099 51.571 81.8422 51.0751C82.0746 50.5792 82.1998 50.04 82.2098 49.4924C82.2236 48.6672 81.9746 47.859 81.4989 47.1845C81.0231 46.5101 80.3453 46.0044 79.5632 45.7406C77.7185 44.9213 70.7288 42.1549 61.4891 42.6465C55.2697 42.9771 49.2889 44.6997 43.7141 47.7715C38.4354 50.6807 33.5337 54.8023 29.0837 60.0603C31.2069 61.571 33.4185 62.9533 35.7067 64.1999C43.2202 55.6363 51.8892 50.9943 61.5485 50.3809C65.1705 50.1611 68.8042 50.5096 72.3183 51.4136Z" fill="#59B2FF"/>
</g>
<defs>
<clipPath id="clip0_2136_1705">
<rect width="84.0597" height="88" fill="white"/>
</clipPath>
</defs>
</svg>
